<?xml version="1.0" encoding="UTF-8"?>
<svg viewBox="0 0 756 756" xmlns="http://www.w3.org/2000/svg">
 <g transform="translate(5.9528 -148.18)" fill="none" stroke="#000" stroke-miterlimit="1.1" stroke-width="3">
  <path d="m372.05 890.68 2e-5 -729m-182.25 680.17 364.5-631.33m-497.92 497.92 631.33-364.5m-680.17 182.25 729 2e-5m-680.17-182.25 631.33 364.5m-497.92-497.92 364.5 631.33" opacity=".99"/>
  <path d="m372.05 161.68-315.67 182.25-9e-6 364.5 315.67 182.25 315.67-182.25v-364.5l-315.67-182.25" opacity=".99"/>
  <path d="m189.8 210.51-182.25 315.67 182.25 315.67 364.5 2e-5 182.25-315.67-182.25-315.67-364.5-1e-5" opacity=".99"/>
 </g>
 <g transform="translate(5.9528 -148.18)" fill="none" stroke="#000" stroke-miterlimit="1.1" stroke-width="3">
  <path d="m56.381 343.93 497.92-133.42 133.42 497.92-497.92 133.42z" opacity=".99"/>
  <path d="m687.71 343.93-133.42 497.92-497.92-133.42 133.42-497.92z" opacity=".99"/>
  <path d="m736.55 526.18-364.5 364.5-364.5-364.5 364.5-364.5z" opacity=".99"/>
 </g>
 <g transform="translate(5.9528 -148.18)" fill="none" stroke="#000" stroke-miterlimit="1.1" stroke-width="3">
  <path d="m189.8 210.51 546.75 315.67-546.75 315.67z" opacity=".99"/>
  <path d="m7.5472 526.18 546.75-315.67-3e-5 631.33z" opacity=".99"/>
  <path d="m56.381 343.93 631.33 2e-5 -315.67 546.75z" opacity=".99"/>
  <path d="m687.71 708.43-631.33-2e-5 315.67-546.75z" opacity=".99"/>
 </g>
 <path d="m195.75 62.334 182.25-48.834 182.25 48.834 133.42 133.42 48.834 182.25-48.834 182.25-133.42 133.42-182.25 48.834-182.25-48.834-133.42-133.42-48.834-182.25 48.834-182.25z" fill="none" opacity=".99" stroke="#000" stroke-miterlimit="1.1" stroke-width="3"/>
 <g transform="translate(5.9528 -148.18)" fill="none" stroke="#000" stroke-miterlimit="1.1" stroke-width="3">
  <path d="m372.05 161.68 182.25 680.17" opacity=".99"/>
  <path d="m189.8 210.51 497.92 497.92" opacity=".99"/>
  <path d="m56.381 343.93 680.17 182.25" opacity=".99"/>
  <path d="m7.5473 526.18 680.17-182.25" opacity=".99"/>
  <path d="m56.381 708.43 497.92-497.92" opacity=".99"/>
  <path d="m189.8 841.85 182.25-680.17" opacity=".99"/>
  <path d="m372.05 890.68-182.25-680.17" opacity=".99"/>
  <path d="m554.3 841.85-497.92-497.92" opacity=".99"/>
  <path d="m687.71 708.43-680.17-182.25" opacity=".99"/>
  <path d="m736.55 526.18-680.17 182.25" opacity=".99"/>
  <path d="m687.71 343.93-497.92 497.92" opacity=".99"/>
  <path d="m554.3 210.51-182.25 680.17" opacity=".99"/>
 </g>
</svg>
